<?xml version="1.0" standalone="no"?>
<!DOCTYPE svg PUBLIC "-//W3C//DTD SVG 20010904//EN"
 "http://www.w3.org/TR/2001/REC-SVG-20010904/DTD/svg10.dtd">
<svg version="1.0" xmlns="http://www.w3.org/2000/svg"
 width="500.000000pt" height="500.000000pt" viewBox="0 0 500.000000 500.000000"
 preserveAspectRatio="xMidYMid meet">

<g transform="translate(0.000000,500.000000) scale(0.100000,-0.100000)"
fill="#000000" stroke="none">
<path d="M772 4129 c-47 -23 -83 -64 -107 -122 -13 -32 -15 -210 -15 -1511 l0
-1474 28 -53 c20 -39 41 -62 77 -84 l48 -30 787 -3 c432 -1 811 1 841 5 l54 8
1 525 c0 289 -2 531 -4 538 -2 7 -16 19 -30 26 -25 13 -28 12 -66 -32 -68 -76
-181 -112 -261 -82 -23 9 -32 6 -67 -24 -58 -50 -105 -69 -168 -70 -47 0 -68
7 -149 49 -58 31 -103 63 -120 84 -25 34 -26 39 -25 164 l1 128 -26 -6 c-14
-4 -29 -9 -32 -13 -4 -4 -12 -77 -18 -162 -7 -85 -18 -177 -26 -205 -19 -68
-63 -134 -111 -167 -52 -36 -153 -62 -207 -53 -63 11 -253 111 -281 148 -52
70 -55 140 -9 177 42 33 83 26 174 -31 72 -45 85 -50 106 -40 35 16 53 69 64
197 10 105 9 117 -7 135 -9 10 -25 19 -35 19 -28 0 -61 49 -54 80 10 38 31 56
81 70 l44 13 2 53 c0 30 1 60 2 66 1 7 -8 14 -19 16 -11 2 -27 10 -35 17 -8 7
-25 16 -38 20 -32 9 -57 61 -43 91 17 39 50 52 289 118 141 39 241 72 258 85
35 28 59 26 119 -9 28 -16 67 -38 87 -50 20 -11 40 -29 43 -41 4 -12 4 -63 1
-113 -6 -80 -5 -88 7 -67 28 48 87 64 128 34 38 -28 62 -42 96 -58 42 -19 53
-41 54 -112 2 -48 3 -41 10 36 10 132 16 156 46 192 49 58 116 73 181 40 l37
-19 0 753 0 752 -95 7 c-52 3 -428 6 -835 6 -735 0 -740 0 -783 -21z m1319
-1276 c36 -27 61 -41 96 -57 68 -31 79 -113 21 -161 -35 -29 -76 -32 -109 -7
-13 9 -50 31 -82 47 -90 46 -113 111 -58 166 35 34 94 40 132 12z"/>
<path d="M1579 2503 c-20 -5 -29 -33 -29 -94 0 -39 4 -47 25 -57 14 -6 26 -17
26 -24 3 -27 18 79 18 130 1 53 -2 56 -40 45z"/>
<path d="M2203 2280 c0 -25 2 -35 4 -22 2 12 2 32 0 45 -2 12 -4 2 -4 -23z"/>
</g>
</svg>
